<svg width="286" height="68" viewBox="0 0 286 68" fill="none" xmlns="http://www.w3.org/2000/svg">
<path d="M0 48.462V20.262L7.68598 20.2393L7.69125 44.7393C7.69125 46.1855 7.82834 47.5361 8.07968 48.9267C8.59466 51.7758 9.97437 54.4282 12.8375 55.4289C17.6076 57.0963 23.5026 55.3036 25.5274 50.6602C26.7243 47.919 27.1654 44.0744 27.2252 41.0339V20.2393L34.9042 20.2411V60.3717L27.401 60.3735L27.3359 54.3359C25.4869 57.2738 23.0228 59.3414 19.8538 60.4762C17.0065 61.496 13.8921 61.8058 10.8918 61.3638C6.9847 60.7894 3.73138 58.4712 1.88766 55.0443C0.739949 52.9976 0.254852 50.7437 0 48.462Z" fill="#1CABE2"/>
<path d="M273.345 26.7398C273.345 41.509 261.246 53.4797 246.322 53.4797C231.398 53.4797 219.299 41.5073 219.299 26.7398C219.299 11.9724 231.395 0 246.32 0C261.246 0 273.344 11.9724 273.344 26.7398H273.345ZM238.939 3.73494C240.404 2.73072 241.847 2.00497 243.38 1.28269L237.752 2.54276L238.939 3.73494ZM254.917 2.54798C253.078 1.93013 251.372 1.49154 249.447 1.3349C250.945 2.09895 252.354 2.78119 253.732 3.75061L254.917 2.54798ZM241.93 5.59371L244.449 2.06936L239.863 4.45722C240.554 4.91495 241.216 5.29436 241.93 5.59197V5.59371ZM252.794 4.44678C251.287 3.4704 249.846 2.69939 248.208 2.0624L250.744 5.59545C251.437 5.28392 252.128 4.93758 252.794 4.44504V4.44678ZM249.662 5.97661C248.772 4.6243 247.895 3.42863 246.885 2.2173L246.878 6.46915C247.848 6.39953 248.727 6.25681 249.66 5.97661H249.662ZM245.753 6.46218L245.74 2.28169C244.703 3.49825 243.877 4.66085 242.995 5.97487C243.928 6.25159 244.814 6.40649 245.753 6.46218ZM243.447 28.6508C243.419 28.4646 243.475 28.1565 243.58 28.0295C243.876 27.6727 244.877 27.9929 244.769 27.0949C244.686 26.4213 244.667 25.7234 245.094 25.8174C245.361 25.8766 245.672 25.8087 245.811 25.5442C245.914 25.3458 245.871 25.1195 245.777 24.8654L245.419 23.896C245.271 23.4974 245.559 23.0397 245.983 23.0084L246.967 22.9353C247.973 22.9353 248.939 22.7299 249.841 22.3C250.34 22.0616 250.852 21.7761 251.201 21.3532C252.11 20.255 253.078 19.2995 254.289 18.5459C257.393 16.6158 260.907 16.7777 264.037 18.5912C265.303 19.3239 266.401 20.2028 267.42 21.254C270.672 24.6043 271.526 29.5036 269.885 33.8233C269.282 35.4123 268.336 36.7386 267.06 37.8559C266.215 38.5973 265.383 39.2709 264.383 39.8087C262.881 40.6162 261.213 41.0444 259.502 40.8895C259.306 40.8721 259.028 40.8146 258.871 40.8982C258.743 40.9678 258.606 41.2201 258.567 41.4011C258.339 42.5046 258.601 43.5836 259.165 44.5617C259.831 45.7139 260.863 46.4954 261.995 47.1497C272.818 39.0585 275.481 23.9586 268.025 12.719C266.587 13.7093 265.083 14.536 263.538 15.307L264.22 16.9256L264.274 17.0561C264.283 17.077 264.201 17.0683 264.179 17.0596L264.065 17.0109L263.16 16.6245C263.018 16.5636 262.812 16.4348 262.759 16.3164L262.506 15.7473C262.105 16.0589 261.844 16.0415 261.45 15.9631L259.843 15.6499L260.058 15.5768L260.167 15.535L262.047 14.7884C261.174 13.0566 260.172 11.5094 258.975 10.0196C258.929 9.96217 258.845 9.89081 258.801 9.91518L258.625 10.0074C257.153 10.7819 255.63 11.4241 254.015 11.9132L255.567 16.4139L254.507 16.7498L252.934 12.216C250.89 12.7573 248.938 13.0096 246.878 13.0671V18.1439L253.057 17.627L251.63 18.9097L246.881 19.2508L246.876 21.08L245.746 21.0765V13.0723L243.125 12.9574L242.491 11.894C242.473 11.8662 242.464 11.7513 242.487 11.7618L242.622 11.814L245.747 11.9724L245.742 7.57257C244.526 7.50818 243.496 7.30281 242.375 6.95124L240.621 10.1362L239.687 9.52707L241.336 6.54921C240.462 6.14369 239.657 5.69814 238.87 5.1151L235.826 7.56039L234.734 7.27148C234.646 7.26626 234.588 7.2593 234.613 7.23145L234.712 7.1131L237.965 4.39108L236.633 2.95349C227.036 6.73543 220.61 15.8291 220.405 26.1255C221.682 25.1091 222.915 24.1536 224.319 23.4017C224.83 23.1285 225.305 22.8657 225.674 22.4445C226.296 21.7344 226.428 20.9059 226.166 20.0166C225.141 16.541 225.235 12.8635 228.106 10.3747C230.861 7.98853 234.369 7.95198 237.541 9.64193C238.489 10.1467 239.343 10.7332 240.16 11.4241C242.09 13.0566 243.322 15.2391 242.61 17.7523C242.032 19.7921 240.605 20.5317 240.689 21.8162C240.724 22.3383 241.188 23.0658 240.893 23.3269C240.621 23.567 240.244 23.5914 240.063 23.8159C239.868 24.0561 240.302 24.6879 239.696 24.8915C239.246 25.0429 239.643 25.7948 239.301 25.7983C238.896 25.8035 238.575 25.9027 238.366 26.2438C237.622 27.4551 236.292 27.4029 234.949 27.034C233.819 26.7242 232.56 26.3552 231.956 27.215C231.688 27.5944 231.725 27.9877 231.838 28.4141L232.103 29.4253L233.188 37.292C234.337 38.8688 236.807 38.2284 238.294 38.6478C238.668 38.7522 238.953 38.8445 239.283 38.5573C240.125 37.8281 241.165 37.1075 242.213 37.5113C242.289 37.7306 242.202 37.9934 242.093 38.2336C242.503 38.5173 243.072 37.8106 243.84 38.1379C244.675 38.4929 244.12 40.5814 243.384 41.6622C242.503 42.9571 240.921 42.9884 239.483 42.4384C239.062 42.2766 238.752 42.3584 238.327 42.4524C236.655 42.8265 234.982 43.0667 233.269 43.2268L231.548 43.1624C230.789 43.1346 230.147 42.7917 229.579 42.3027C228.913 43.326 228.419 44.4068 228.734 45.5816C229.581 46.3457 230.469 47.1132 231.439 47.7136C233.653 48.2218 235.884 47.8407 237.93 46.9687C239.506 46.2969 241.044 45.7557 242.68 45.2753C243.823 44.9394 244.937 44.7671 246.104 44.6627C247.143 44.5687 247.837 43.7942 247.909 42.8004C247.952 42.2209 247.774 41.7179 247.589 41.1627C246.844 38.9141 247.693 37.2589 246.095 35.5864L244.805 34.4951C243.616 33.4892 241.628 32.4589 242.598 30.5061C243.043 29.6115 243.63 29.9544 243.438 28.6578L243.447 28.6508ZM259.114 8.46541L262.084 6.39083C260.204 4.96542 258.216 3.82371 256.031 2.95872L254.68 4.40153C256.337 5.632 257.766 6.93558 259.114 8.46541ZM253.59 10.9003C255.209 10.3816 256.689 9.78813 258.123 9.01886C256.776 7.51514 255.346 6.23071 253.774 5.1238C252.982 5.71032 252.208 6.15239 251.337 6.5405L253.592 10.9003H253.59ZM252.484 11.1857C251.806 9.68022 251.099 8.31747 250.28 6.94776L246.879 7.57257V11.9689C248.807 11.9097 250.66 11.666 252.484 11.1874V11.1857ZM263.063 14.3132C264.636 13.5074 266.016 12.7381 267.405 11.8175C266.106 10.037 264.638 8.46889 262.968 7.09396L259.828 9.31822C261.083 10.8742 262.144 12.5154 263.062 14.3132H263.063Z" fill="#1CABE2"/>
<path d="M172.294 47.7937C171.668 52.6704 169.208 56.6594 164.828 59.0368C160.986 61.1184 156.135 61.6666 151.807 61.2437C147.074 60.779 142.907 58.7705 140.147 54.8946C137.759 51.5408 136.724 47.4247 136.427 43.3591C136.075 38.5347 136.585 33.5362 138.652 29.1277C140.745 24.6652 144.292 21.3567 149.097 19.9487C151.695 19.1881 154.361 18.9897 157.063 19.2525C164.698 19.9922 170.013 23.99 171.99 31.4042C172.507 33.4474 172.761 35.4802 172.767 37.5879L172.776 41.69H144.371C144.088 45.2509 144.659 49.1077 146.705 52.0351C148.118 54.061 150.22 55.3941 152.704 55.7527C154.755 56.0485 156.834 55.8901 158.81 55.3175C162.397 54.1723 163.713 51.278 164.244 47.7937H172.292H172.294ZM164.743 36.4479C164.766 35.3097 164.701 34.3072 164.557 33.2699C164.334 31.9315 163.982 30.6801 163.36 29.4793C162.3 27.4273 160.541 25.9044 158.314 25.1978C156.662 24.6722 154.966 24.5191 153.236 24.7035C151.073 24.935 149.153 25.8818 147.644 27.4134C145.329 29.8308 144.378 33.1272 144.376 36.4479H164.743Z" fill="#1CABE2"/>
<path d="M64.3545 25.2848C60.3261 24.2649 56.2203 25.1299 53.3133 28.1339C52.6313 28.8388 52.0777 29.5576 51.6787 30.4608C50.6312 32.8348 50.4449 35.468 50.3833 38.0909V60.3717L42.7202 60.37V20.2428L50.2093 20.2359L50.2603 26.2508C51.278 24.5643 52.3589 23.1389 53.9284 21.9885C56.3135 20.2394 59.1467 19.1951 62.1382 19.0715C64.2596 18.9845 66.3213 19.2873 68.3601 19.8408C69.8927 20.2568 71.2812 20.8711 72.6047 21.7205C76.3484 24.124 77.9443 27.9703 78.011 32.3335V60.37H70.3286V34.6031C70.2319 30.3129 68.8223 26.4144 64.3527 25.2831L64.3545 25.2848Z" fill="#1CABE2"/>
<path d="M118.622 55.7161C123.114 54.8459 124.972 51.1388 125.271 46.927H132.908C132.518 52.3084 129.904 56.8596 125.041 59.4319C120.988 61.5674 115.812 61.832 111.386 60.8016C103.888 59.056 100.085 53.1942 98.9581 45.9436C98.2093 41.1244 98.4413 35.7709 100.055 31.1483C102.002 25.572 105.981 21.3236 111.84 19.806C115.938 18.7443 120.773 18.8575 124.63 20.6901C129.63 23.0588 132.338 27.6553 132.577 33.1167H124.963C124.638 29.3104 123.164 25.9305 119.22 24.9263C117.611 24.5399 115.975 24.5278 114.348 24.8776C109.191 25.9845 107.356 31.1692 106.827 35.9258C106.503 38.8323 106.502 41.697 106.827 44.6035C107.344 49.2069 109.08 54.282 113.989 55.5577C115.508 55.9528 117.035 56.0015 118.622 55.7161Z" fill="#1CABE2"/>
<path d="M198.345 25.5807H189.023V60.1855H181.395V25.5842L174.465 25.579V20.3124H181.391L181.409 11.5546C181.412 10.1588 181.688 8.84481 182.147 7.54472C183.611 3.39729 187.437 1.32619 191.714 0.856277C193.454 0.638724 195.129 0.692677 196.844 1.01466L199.468 1.50893V7.78837L196.955 7.59519C195.723 7.50121 194.528 7.54472 193.308 7.67525C191.503 7.97112 190.056 8.56982 189.35 10.3015C189.183 10.8637 189.021 11.4259 189.021 12.0402V20.3107L198.34 20.309V25.5772L198.345 25.5807Z" fill="#1CABE2"/>
<path d="M92.8329 20.2063H85.1539V60.3247H92.8329V20.2063Z" fill="#1CABE2"/>
<path d="M254.947 68L251.95 64.7419C250.25 63.1181 248.437 61.6945 246.373 60.5197C243.028 62.4307 240.236 65.0395 237.815 68.0017C237.144 67.7946 236.636 67.3665 236.176 66.8827C238.476 63.8561 241.492 61.5935 244.76 59.7104C243.239 59.0264 241.744 58.5791 240.174 58.4242C239.652 58.9324 239.151 59.4058 238.547 59.7957C236.926 60.8382 234.465 61.0383 232.486 60.9809C229.061 60.8817 225.765 60.1055 222.621 58.7392C222.501 58.6748 222.521 58.6365 222.658 58.6244C230.358 56.4262 238.833 55.9493 246.377 58.9672C251.396 56.9448 256.885 56.5028 262.258 57.0719C264.914 57.3538 267.447 57.8847 270.001 58.6035L270.166 58.6505C270.19 58.6574 270.197 58.6766 270.175 58.6905L270.045 58.7723C266.825 60.1681 263.397 60.9391 259.868 60.9931C257.959 61.0105 255.158 60.7163 253.792 59.512L252.556 58.4225C250.968 58.5895 249.438 59.0421 247.981 59.7121C251.294 61.5935 254.279 63.8909 256.569 66.867C256.131 67.37 255.625 67.7616 254.947 68Z" fill="#1CABE2"/>
<path d="M93.564 2.6228H84.4193V10.8654H93.564V2.6228Z" fill="#1CABE2"/>
<path d="M280.036 48.4481C276.804 54.0801 272.642 57.8638 265.654 56.4488C265.997 55.8345 266.48 55.3193 267.071 54.8529C269.709 52.7661 273.888 50.4844 277.035 49.2226L280.036 48.4499V48.4481Z" fill="#1CABE2"/>
<path d="M227.094 56.4558C224.034 57.0562 221.203 56.7882 218.557 55.1313C215.954 53.5006 214.269 51.0727 212.708 48.4516C213.893 48.5595 214.963 48.9024 216.072 49.3688C218.898 50.5575 221.558 52.0195 224.111 53.7042L226.106 55.2253C226.53 55.5473 226.802 55.9633 227.096 56.4558H227.094Z" fill="#1CABE2"/>
<path d="M234.13 55.9128C228.732 56.5306 225.648 53.9566 224.37 48.9354L223.783 45.9106C224.24 46.1281 224.602 46.3248 224.994 46.6207C227.446 48.4812 229.769 50.4548 231.922 52.6478L233.543 54.5448C233.877 54.9347 234.028 55.4133 234.13 55.9128Z" fill="#1CABE2"/>
<path d="M268.225 49.4697C266.83 54.2629 263.715 56.4889 258.625 55.911C258.712 55.3558 258.919 54.9277 259.227 54.51C259.882 53.6189 260.606 52.8514 261.409 52.063C263.534 49.9832 265.77 48.0704 268.178 46.3196L268.958 45.9315L268.225 49.468V49.4697Z" fill="#1CABE2"/>
<path d="M218.721 49.3583C216.708 48.8675 214.988 47.8477 213.45 46.5284C211.893 45.1639 210.652 43.5784 209.62 41.7892C208.664 40.1097 207.97 38.3676 207.659 36.4096C208.966 37.151 210.061 38.0317 211.13 39.0463C213.408 41.2114 215.401 43.5975 217.16 46.1908C217.786 47.195 218.376 48.1226 218.723 49.3583H218.721Z" fill="#1CABE2"/>
<path d="M283.2 41.6622C281.204 45.1918 278.096 48.3315 273.999 49.374C274.351 48.3071 274.806 47.3986 275.41 46.4745C277.34 43.5314 279.623 40.8668 282.232 38.4877L285.088 36.4113C284.791 38.2788 284.137 40.0036 283.2 41.6605V41.6622Z" fill="#1CABE2"/>
<path d="M269.503 51.3737C269.292 50.4966 269.315 49.6768 269.477 48.7683C270.016 45.7348 270.886 42.7969 272.096 39.9618L273.748 37.2311C275.377 41.8432 275.226 46.9357 271.203 50.192L269.501 51.3737H269.503Z" fill="#1CABE2"/>
<path d="M223.24 51.3581C217.839 48.2671 217.032 42.8735 219.002 37.2293C219.621 37.9951 220.102 38.747 220.501 39.645C221.814 42.6038 222.728 45.6982 223.296 48.8832C223.401 49.7273 223.475 50.4548 223.24 51.3581Z" fill="#1CABE2"/>
<path d="M285.988 28.1009C285.657 32.5111 283.942 36.4323 279.942 38.7105C279.92 37.6714 280.084 36.7647 280.363 35.797C281.225 32.8104 282.409 29.9631 283.908 27.2341L285.921 24.4146L286.002 25.6121L285.989 28.0991L285.988 28.1009Z" fill="#1CABE2"/>
<path d="M212.814 38.7104C207.706 35.8179 206.267 30.1563 206.839 24.4564C207.731 25.3893 208.353 26.3743 208.97 27.4638C210.42 30.1598 211.566 32.9636 212.415 35.9014C212.655 36.8221 212.812 37.6401 212.814 38.7104Z" fill="#1CABE2"/>
<path d="M216.095 42.8753L215.376 41.8032C214.174 40.014 213.784 37.8524 214.063 35.7065C214.394 33.162 215.552 30.8785 217.074 28.7883C217.396 29.7769 217.596 30.7202 217.647 31.7766C217.788 34.7492 217.563 37.6819 216.981 40.5866C216.775 41.4011 216.589 42.0973 216.097 42.8753H216.095Z" fill="#1CABE2"/>
<path d="M277.46 41.6552L276.657 42.8822C276.201 42.1217 275.947 41.4133 275.773 40.5692C275.164 37.6296 274.954 34.6483 275.11 31.6496C275.163 30.6453 275.354 29.7438 275.685 28.7883L277.128 31.0787C277.883 32.4745 278.411 33.9138 278.655 35.4872C278.975 37.6401 278.579 39.7547 277.46 41.6535V41.6552Z" fill="#1CABE2"/>
<path d="M210.933 28.3654C210.355 27.6466 209.817 26.9974 209.406 26.202C207.476 22.4758 208.079 17.4529 209.662 13.5805C210.163 14.6665 210.508 15.7961 210.741 17.0196C211.228 19.5745 211.434 22.1103 211.42 24.7175C211.413 25.9984 211.239 27.168 210.933 28.3654Z" fill="#1CABE2"/>
<path d="M281.806 28.3619C281.516 27.1732 281.342 26.0837 281.33 24.8671C281.302 22.1799 281.518 19.5536 282.03 16.9204L283.084 13.584C284.72 17.5783 285.322 22.8082 283.118 26.5919L281.806 28.3602V28.3619Z" fill="#1CABE2"/>
<path d="M212.787 33.7294C211.678 31.0508 211.833 28.703 212.986 26.1098C213.921 24.1083 215.299 22.4131 216.962 20.9373C217.083 22.1242 216.972 23.2346 216.714 24.4007C216.185 26.7764 215.383 29.032 214.336 31.2266C213.886 32.1334 213.416 32.9357 212.787 33.7311V33.7294Z" fill="#1CABE2"/>
<path d="M279.963 33.7346C279.182 32.7321 278.625 31.7261 278.121 30.6053C277.205 28.569 276.498 26.5031 276.012 24.3241C275.769 23.1824 275.667 22.0999 275.778 20.939C277.252 22.2339 278.502 23.7219 279.428 25.4589C280.873 28.207 281.163 30.8333 279.963 33.7363V33.7346Z" fill="#1CABE2"/>
<path d="M280.063 23.4296C279.209 22.8274 278.476 22.0372 277.79 21.1427C275.98 18.7861 274.108 15.4758 273.403 12.5119C276.245 14.1549 278.794 16.2886 279.768 19.4092C280.154 20.6936 280.219 21.9432 280.063 23.4278V23.4296Z" fill="#1CABE2"/>
<path d="M212.669 23.4765L212.631 22.3435C212.555 20.114 213.351 18.0342 214.803 16.3408C215.689 15.307 216.661 14.4072 217.821 13.6936L219.565 12.6215C218.835 15.4514 216.977 18.6503 215.156 20.9895C214.427 21.9276 213.641 22.7142 212.669 23.4748V23.4765Z" fill="#1CABE2"/>
<path d="M212.014 17.6131C211.17 14.9537 212.214 12.404 213.861 10.2145L217.252 6.76501C216.933 8.99972 216.392 11.13 215.404 13.1471C214.589 14.8528 213.547 16.346 212.016 17.6131H212.014Z" fill="#1CABE2"/>
<path d="M275.495 6.74588C278.715 9.42961 282.045 13.3891 280.727 17.6218C277.5 14.9189 276.041 10.7332 275.495 6.74588Z" fill="#1CABE2"/>
</svg>
