<?xml version="1.0" encoding="UTF-8"?><svg id="Layer_2" xmlns="http://www.w3.org/2000/svg" viewBox="0 0 1627.22 390.71"><defs><style>.cls-1{fill:#fff;}</style></defs><g id="_Meena_Front"><g id="_5kLKbz.tif"><path class="cls-1" d="M0,278.45V116.42s43.73-.13,43.73-.13l.03,140.77c0,8.31.78,16.07,2.21,24.06,2.93,16.37,10.78,31.61,27.07,37.36,27.14,9.58,60.68-.72,72.2-27.4,6.81-15.75,9.32-37.84,9.66-55.31v-119.48s43.69.01,43.69.01v230.58s-42.69.01-42.69.01l-.37-34.69c-10.52,16.88-24.54,28.76-42.57,35.28-16.2,5.86-33.92,7.64-50.99,5.1-22.23-3.3-40.74-16.62-51.23-36.31C4.21,304.51,1.45,291.56,0,278.45Z"/><path class="cls-1" d="M1555.22,153.64c0,84.86-68.84,153.64-153.75,153.64s-153.75-68.79-153.75-153.64S1316.54,0,1401.46,0s153.75,68.79,153.75,153.64ZM1359.46,21.46c8.34-5.77,16.55-9.94,25.27-14.09l-32.02,7.24,6.75,6.85ZM1450.37,14.64c-10.46-3.55-20.17-6.07-31.12-6.97,8.52,4.39,16.54,8.31,24.38,13.88l6.74-6.91ZM1376.48,32.14l14.33-20.25-26.09,13.72c3.93,2.63,7.7,4.81,11.76,6.52ZM1438.29,25.55c-8.57-5.61-16.77-10.04-26.09-13.7l14.43,20.3c3.94-1.79,7.87-3.78,11.66-6.61ZM1420.47,34.34c-5.06-7.77-10.05-14.64-15.8-21.6l-.04,24.43c5.52-.4,10.52-1.22,15.83-2.83ZM1398.23,37.13l-.07-24.02c-5.9,6.99-10.6,13.67-15.62,21.22,5.31,1.59,10.35,2.48,15.69,2.8ZM1385.11,164.62c-.16-1.07.16-2.84.76-3.57,1.68-2.05,7.38-.21,6.76-5.37-.47-3.87-.58-7.88,1.85-7.34,1.52.34,3.29-.05,4.08-1.57.59-1.14.34-2.44-.19-3.9l-2.04-5.57c-.84-2.29.8-4.92,3.21-5.1l5.6-.42c5.72,0,11.22-1.18,16.35-3.65,2.84-1.37,5.75-3.01,7.74-5.44,5.17-6.31,10.68-11.8,17.57-16.13,17.66-11.09,37.65-10.16,55.46.26,7.2,4.21,13.45,9.26,19.25,15.3,18.5,19.25,23.36,47.4,14.02,72.22-3.43,9.13-8.81,16.75-16.07,23.17-4.81,4.26-9.54,8.13-15.23,11.22-8.55,4.64-18.04,7.1-27.77,6.21-1.12-.1-2.7-.43-3.59.05-.73.4-1.51,1.85-1.73,2.89-1.3,6.34.19,12.54,3.4,18.16,3.79,6.62,9.66,11.11,16.1,14.87,61.58-46.49,76.73-133.25,34.31-197.83-8.18,5.69-16.74,10.44-25.53,14.87l3.88,9.3.31.75c.05.12-.42.07-.54.02l-.65-.28-5.15-2.22c-.81-.35-1.98-1.09-2.28-1.77l-1.44-3.27c-2.28,1.79-3.77,1.69-6.01,1.24l-9.14-1.8,1.22-.42.62-.24,10.7-4.29c-4.97-9.95-10.67-18.84-17.48-27.4-.26-.33-.74-.74-.99-.6l-1,.53c-8.38,4.45-17.04,8.14-26.23,10.95l8.83,25.86-6.03,1.93-8.95-26.05c-11.63,3.11-22.74,4.56-34.46,4.89v29.17s35.16-2.97,35.16-2.97l-8.12,7.37-27.02,1.96-.03,10.51-6.43-.02v-45.99s-14.91-.66-14.91-.66l-3.61-6.11c-.1-.16-.15-.82-.02-.76l.77.3,17.78.91-.03-25.28c-6.92-.37-12.78-1.55-19.16-3.57l-9.98,18.3-5.31-3.5,9.38-17.11c-4.97-2.33-9.55-4.89-14.03-8.24l-17.32,14.05-6.21-1.66c-.5-.03-.83-.07-.69-.23l.56-.68,18.51-15.64-7.58-8.26c-54.6,21.73-91.16,73.98-92.33,133.14,7.27-5.84,14.28-11.33,22.27-15.65,2.91-1.57,5.61-3.08,7.71-5.5,3.54-4.08,4.29-8.84,2.8-13.95-5.83-19.97-5.3-41.1,11.04-55.4,15.67-13.71,35.63-13.92,53.68-4.21,5.39,2.9,10.25,6.27,14.9,10.24,10.98,9.38,17.99,21.92,13.94,36.36-3.29,11.72-11.41,15.97-10.93,23.35.2,3,2.84,7.18,1.16,8.68-1.55,1.38-3.69,1.52-4.72,2.81-1.11,1.38,1.36,5.01-2.09,6.18-2.56.87-.3,5.19-2.25,5.21-2.3.03-4.13.6-5.32,2.56-4.23,6.96-11.8,6.66-19.44,4.54-6.43-1.78-13.59-3.9-17.03,1.04-1.52,2.18-1.31,4.44-.67,6.89l1.51,5.81,6.17,45.2c6.54,9.06,20.59,5.38,29.05,7.79,2.13.6,3.75,1.13,5.63-.52,4.79-4.19,10.71-8.33,16.67-6.01.43,1.26-.06,2.77-.68,4.15,2.33,1.63,5.57-2.43,9.94-.55,4.75,2.04,1.59,14.04-2.6,20.25-5.01,7.44-14.01,7.62-22.19,4.46-2.4-.93-4.16-.46-6.58.08-9.51,2.15-19.03,3.53-28.78,4.45l-9.79-.37c-4.32-.16-7.97-2.13-11.2-4.94-3.79,5.88-6.6,12.09-4.81,18.84,4.82,4.39,9.87,8.8,15.39,12.25,12.6,2.92,25.29.73,36.93-4.28,8.97-3.86,17.72-6.97,27.03-9.73,6.5-1.93,12.84-2.92,19.48-3.52,5.91-.54,9.86-4.99,10.27-10.7.24-3.33-.77-6.22-1.82-9.41-4.24-12.92.59-22.43-8.5-32.04l-7.34-6.27c-6.77-5.78-18.08-11.7-12.56-22.92,2.53-5.14,5.87-3.17,4.78-10.62ZM1474.25,48.64l16.9-11.92c-10.7-8.19-22.01-14.75-34.44-19.72l-7.69,8.29c9.43,7.07,17.56,14.56,25.23,23.35ZM1442.82,62.63c9.21-2.98,17.63-6.39,25.79-10.81-7.66-8.64-15.8-16.02-24.74-22.38-4.51,3.37-8.91,5.91-13.87,8.14l12.83,25.05ZM1436.53,64.27c-3.86-8.65-7.88-16.48-12.54-24.35l-19.35,3.59v25.26c10.97-.34,21.51-1.74,31.89-4.49ZM1496.72,82.24c8.95-4.63,16.8-9.05,24.7-14.34-7.39-10.23-15.74-19.24-25.24-27.14l-17.87,12.78c7.14,8.94,13.18,18.37,18.4,28.7Z"/><path class="cls-1" d="M980.28,274.61c-3.56,28.02-17.56,50.94-42.48,64.6-21.86,11.96-49.46,15.11-74.08,12.68-26.93-2.67-50.64-14.21-66.34-36.48-13.59-19.27-19.48-42.92-21.17-66.28-2-27.72.9-56.44,12.66-81.77,11.91-25.64,32.09-44.65,59.43-52.74,14.78-4.37,29.95-5.51,45.32-4,43.44,4.25,73.68,27.22,84.93,69.82,2.94,11.74,4.39,23.42,4.42,35.53l.05,23.57h-161.61c-1.61,20.46,1.64,42.62,13.28,59.44,8.04,11.64,20,19.3,34.13,21.36,11.67,1.7,23.5.79,34.74-2.5,20.41-6.58,27.9-23.21,30.92-43.23h45.79ZM937.32,209.42c.13-6.54-.24-12.3-1.06-18.26-1.27-7.69-3.27-14.88-6.81-21.78-6.03-11.79-16.04-20.54-28.71-24.6-9.4-3.02-19.05-3.9-28.89-2.84-12.31,1.33-23.23,6.77-31.82,15.57-13.17,13.89-18.58,32.83-18.59,51.91h115.88Z"/><path class="cls-1" d="M366.15,145.28c-22.92-5.86-46.28-.89-62.82,16.37-3.88,4.05-7.03,8.18-9.3,13.37-5.96,13.64-7.02,28.77-7.37,43.84v128.02s-43.6-.01-43.6-.01V116.31s42.61-.04,42.61-.04l.29,34.56c5.79-9.69,11.94-17.88,20.87-24.49,13.57-10.05,29.69-16.05,46.71-16.76,12.07-.5,23.8,1.24,35.4,4.42,8.72,2.39,16.62,5.92,24.15,10.8,21.3,13.81,30.38,35.91,30.76,60.98v161.09s-43.71,0-43.71,0v-148.05c-.55-24.65-8.57-47.05-34-53.55Z"/><path class="cls-1" d="M674.91,320.13c25.56-5,36.13-26.3,37.83-50.5h43.45c-2.22,30.92-17.09,57.07-44.76,71.85-23.06,12.27-52.51,13.79-77.69,7.87-42.66-10.03-64.3-43.71-70.71-85.37-4.26-27.69-2.94-58.45,6.24-85.01,11.08-32.04,33.72-56.45,67.05-65.17,23.32-6.1,50.83-5.45,72.77,5.08,28.45,13.61,43.86,40.02,45.22,71.4h-43.32c-1.85-21.87-10.24-41.29-32.68-47.06-9.15-2.22-18.46-2.29-27.72-.28-29.34,6.36-39.78,36.15-42.79,63.48-1.84,16.7-1.85,33.16,0,49.86,2.94,26.45,12.82,55.61,40.75,62.94,8.64,2.27,17.33,2.55,26.36.91Z"/><path class="cls-1" d="M1128.5,146.98h-53.04s0,198.83,0,198.83h-43.4s0-198.81,0-198.81l-39.43-.03v-30.26s39.41,0,39.41,0l.1-50.32c.02-8.02,1.59-15.57,4.2-23.04,8.33-23.83,30.1-35.73,54.43-38.43,9.9-1.25,19.43-.94,29.19.91l14.93,2.84v36.08s-14.3-1.11-14.3-1.11c-7.01-.54-13.81-.29-20.75.46-10.27,1.7-18.5,5.14-22.52,15.09-.95,3.23-1.87,6.46-1.87,9.99v47.52s53.02-.01,53.02-.01v30.27Z"/><rect class="cls-1" x="484.49" y="116.1" width="43.69" height="230.51"/><path class="cls-1" d="M1450.54,390.71l-17.05-18.72c-9.67-9.33-19.99-17.51-31.73-24.26-19.03,10.98-34.92,25.97-48.69,42.99-3.82-1.19-6.71-3.65-9.33-6.43,13.09-17.39,30.25-30.39,48.84-41.21-8.65-3.93-17.16-6.5-26.09-7.39-2.97,2.92-5.82,5.64-9.26,7.88-9.22,5.99-23.22,7.14-34.48,6.81-19.49-.57-38.24-5.03-56.13-12.88-.68-.37-.57-.59.21-.66,43.81-12.63,92.03-15.37,134.95,1.97,28.56-11.62,59.79-14.16,90.36-10.89,15.11,1.62,29.52,4.67,44.05,8.8l.94.27c.14.04.18.15.05.23l-.74.47c-18.32,8.02-37.82,12.45-57.9,12.76-10.86.1-26.8-1.59-34.57-8.51l-7.03-6.26c-9.04.96-17.74,3.56-26.03,7.41,18.85,10.81,35.83,24.01,48.86,41.11-2.49,2.89-5.37,5.14-9.23,6.51Z"/><rect class="cls-1" x="480.31" y="15.07" width="52.03" height="47.36"/><path class="cls-1" d="M1593.29,278.37c-18.39,32.36-42.07,54.1-81.83,45.97,1.95-3.53,4.7-6.49,8.06-9.17,15.01-11.99,38.79-25.1,56.69-32.35l17.08-4.44Z"/><path class="cls-1" d="M1292.07,324.38c-17.41,3.45-33.52,1.91-48.57-7.61-14.81-9.37-24.4-23.32-33.28-38.38,6.74.62,12.83,2.59,19.14,5.27,16.08,6.83,31.21,15.23,45.74,24.91l11.35,8.74c2.41,1.85,3.96,4.24,5.63,7.07Z"/><path class="cls-1" d="M1332.1,321.26c-30.71,3.55-48.26-11.24-55.53-40.09l-3.34-17.38c2.6,1.25,4.66,2.38,6.89,4.08,13.95,10.69,27.17,22.03,39.42,34.63l9.22,10.9c1.9,2.24,2.76,4.99,3.34,7.86Z"/><path class="cls-1" d="M1526.09,284.24c-7.94,27.54-25.66,40.33-54.62,37.01.49-3.19,1.67-5.65,3.42-8.05,3.73-5.12,7.85-9.53,12.42-14.06,12.09-11.95,24.81-22.94,38.51-33l4.44-2.23-4.17,20.32Z"/><path class="cls-1" d="M1244.43,283.6c-11.45-2.82-21.24-8.68-29.99-16.26-8.86-7.84-15.92-16.95-21.79-27.23-5.44-9.65-9.39-19.66-11.16-30.91,7.44,4.26,13.67,9.32,19.75,15.15,12.96,12.44,24.3,26.15,34.31,41.05,3.56,5.77,6.92,11.1,8.89,18.2Z"/><path class="cls-1" d="M1611.29,239.38c-11.36,20.28-29.04,38.32-52.35,44.31,2-6.13,4.59-11.35,8.03-16.66,10.98-16.91,23.97-32.22,38.81-45.89l16.25-11.93c-1.69,10.73-5.41,20.64-10.74,30.16Z"/><path class="cls-1" d="M1533.36,295.18c-1.2-5.04-1.07-9.75-.15-14.97,3.07-17.43,8.02-34.31,14.9-50.6l9.4-15.69c9.27,26.5,8.41,55.76-14.48,74.47l-9.68,6.79Z"/><path class="cls-1" d="M1270.14,295.09c-30.73-17.76-35.32-48.75-24.11-81.18,3.52,4.4,6.26,8.72,8.53,13.88,7.47,17,12.67,34.78,15.9,53.08.6,4.85,1.02,9.03-.32,14.22Z"/><path class="cls-1" d="M1627.15,161.46c-1.88,25.34-11.64,47.87-34.4,60.96-.12-5.97.81-11.18,2.4-16.74,4.9-17.16,11.64-33.52,20.17-49.2l11.45-16.2.46,6.88-.07,14.29Z"/><path class="cls-1" d="M1210.82,222.42c-29.06-16.62-37.25-49.15-33.99-81.9,5.07,5.36,8.61,11.02,12.12,17.28,8.25,15.49,14.77,31.6,19.6,48.48,1.37,5.29,2.26,9.99,2.27,16.14Z"/><path class="cls-1" d="M1229.49,246.35l-4.09-6.16c-6.84-10.28-9.06-22.7-7.47-35.03,1.88-14.62,8.47-27.74,17.13-39.75,1.83,5.68,2.97,11.1,3.26,17.17.8,17.08-.48,33.93-3.79,50.62-1.17,4.68-2.23,8.68-5.03,13.15Z"/><path class="cls-1" d="M1578.63,239.34l-4.57,7.05c-2.59-4.37-4.04-8.44-5.03-13.29-3.46-16.89-4.66-34.02-3.77-51.25.3-5.77,1.39-10.95,3.27-16.44l8.21,13.16c4.3,8.02,7.3,16.29,8.69,25.33,1.82,12.37-.43,24.52-6.8,35.43Z"/><path class="cls-1" d="M1200.12,162.98c-3.29-4.13-6.35-7.86-8.69-12.43-10.98-21.41-7.55-50.27,1.46-72.52,2.85,6.24,4.81,12.73,6.14,19.76,2.77,14.68,3.94,29.25,3.86,44.23-.04,7.36-1.03,14.08-2.77,20.96Z"/><path class="cls-1" d="M1603.36,162.96c-1.65-6.83-2.64-13.09-2.71-20.08-.16-15.44,1.07-30.53,3.98-45.66l6-19.17c9.31,22.95,12.73,53,.19,74.74l-7.46,10.16Z"/><path class="cls-1" d="M1210.67,193.8c-6.31-15.39-5.43-28.88,1.13-43.78,5.32-11.5,13.16-21.24,22.62-29.72.69,6.82.06,13.2-1.41,19.9-3.01,13.65-7.57,26.61-13.53,39.22-2.56,5.21-5.23,9.82-8.81,14.39Z"/><path class="cls-1" d="M1592.87,193.83c-4.44-5.76-7.61-11.54-10.48-17.98-5.21-11.7-9.23-23.57-12-36.09-1.38-6.56-1.96-12.78-1.33-19.45,8.39,7.44,15.5,15.99,20.77,25.97,8.22,15.79,9.87,30.88,3.04,47.56Z"/><path class="cls-1" d="M1593.44,134.62c-4.86-3.46-9.03-8-12.93-13.14-10.3-13.54-20.95-32.56-24.96-49.59,16.17,9.44,30.67,21.7,36.21,39.63,2.2,7.38,2.57,14.56,1.68,23.09Z"/><path class="cls-1" d="M1210,134.89l-.22-6.51c-.43-12.81,4.1-24.76,12.36-34.49,5.04-5.94,10.57-11.11,17.17-15.21l9.92-6.16c-4.15,16.26-14.72,34.64-25.08,48.08-4.15,5.39-8.62,9.91-14.15,14.28Z"/><path class="cls-1" d="M1206.27,101.2c-4.8-15.28,1.14-29.93,10.51-42.51l19.29-19.82c-1.81,12.84-4.89,25.08-10.51,36.67-4.64,9.8-10.57,18.38-19.28,25.66Z"/><path class="cls-1" d="M1567.45,38.76c18.32,15.42,37.27,38.17,29.77,62.49-18.36-15.53-26.66-39.58-29.77-62.49Z"/></g></g></svg>